<?xml version="1.0" encoding="UTF-8" standalone="no"?>
<!-- Generator: Adobe Illustrator 15.0.2, SVG Export Plug-In . SVG Version: 6.00 Build 0)  -->

<svg
   xmlns:osb="http://www.openswatchbook.org/uri/2009/osb"
   xmlns:dc="http://purl.org/dc/elements/1.1/"
   xmlns:cc="http://creativecommons.org/ns#"
   xmlns:rdf="http://www.w3.org/1999/02/22-rdf-syntax-ns#"
   xmlns:svg="http://www.w3.org/2000/svg"
   xmlns="http://www.w3.org/2000/svg"
   xmlns:xlink="http://www.w3.org/1999/xlink"
   xmlns:sodipodi="http://sodipodi.sourceforge.net/DTD/sodipodi-0.dtd"
   xmlns:inkscape="http://www.inkscape.org/namespaces/inkscape"
   version="1.1"
   id="ORANGE_BACKGROUNDS"
   x="0px"
   y="0px"
   width="96"
   height="96"
   viewBox="0 0 96 96"
   enable-background="new 0 0 96 96"
   xml:space="preserve"
   inkscape:version="0.48.5 r10040"
   sodipodi:docname="2_Symbian_LAUNCHER_icon_Inkscape_template_INDIVIDUAL.svg"
   style="display:inline"><metadata
   id="metadata3069"><rdf:RDF><cc:Work
       rdf:about=""><dc:format>image/svg+xml</dc:format><dc:type
         rdf:resource="http://purl.org/dc/dcmitype/StillImage" /><dc:title></dc:title></cc:Work></rdf:RDF></metadata><defs
   id="defs3067"><linearGradient
   id="linearGradient5113"
   osb:paint="solid"><stop
     style="stop-color:#64af2d;stop-opacity:1;"
     offset="0"
     id="stop5115" /></linearGradient><linearGradient
   id="linearGradient5332"><stop
     style="stop-color:#78c56d;stop-opacity:1;"
     offset="0"
     id="stop5334" /></linearGradient><linearGradient
   id="linearGradient3799"><stop
     style="stop-color:#7886e4;stop-opacity:1;"
     offset="0"
     id="stop3801" /></linearGradient><linearGradient
   id="RED_x2F_ORANGE_5_2_-1"
   gradientUnits="userSpaceOnUse"
   x1="47.9995"
   y1="8.0107002"
   x2="47.9995"
   y2="87.9897"><stop
     offset="0"
     style="stop-color:#FFDB62"
     id="stop3054-7" /><stop
     offset="0.1393"
     style="stop-color:#FAD15C"
     id="stop3056-4" /><stop
     offset="0.3741"
     style="stop-color:#EDB74D"
     id="stop3058-0" /><stop
     offset="0.4848"
     style="stop-color:#E6A844"
     id="stop3060-9" /><stop
     offset="1"
     style="stop-color:#C96B25"
     id="stop3062-4" /></linearGradient><linearGradient
   gradientTransform="translate(2.000003,-1.988)"
   y2="87.9897"
   x2="47.9995"
   y1="8.0107002"
   x1="47.9995"
   gradientUnits="userSpaceOnUse"
   id="linearGradient3091"
   xlink:href="#RED_x2F_ORANGE_5_2_-1"
   inkscape:collect="always" /><linearGradient
   inkscape:collect="always"
   xlink:href="#RED_x2F_ORANGE_5_2_-1"
   id="linearGradient3124"
   gradientUnits="userSpaceOnUse"
   gradientTransform="translate(1.5e-6,5e-4)"
   x1="47.9995"
   y1="8.0107002"
   x2="47.9995"
   y2="87.9897" /><linearGradient
   inkscape:collect="always"
   xlink:href="#RED_x2F_ORANGE_5_2_-1-7"
   id="linearGradient3124-1"
   gradientUnits="userSpaceOnUse"
   gradientTransform="translate(1.5e-6,5e-4)"
   x1="47.9995"
   y1="8.0107002"
   x2="47.9995"
   y2="87.9897" /><linearGradient
   id="RED_x2F_ORANGE_5_2_-1-7"
   gradientUnits="userSpaceOnUse"
   x1="47.9995"
   y1="8.0107002"
   x2="47.9995"
   y2="87.9897"><stop
     offset="0"
     style="stop-color:#FFDB62"
     id="stop3054-7-4" /><stop
     offset="0.1393"
     style="stop-color:#FAD15C"
     id="stop3056-4-0" /><stop
     offset="0.3741"
     style="stop-color:#EDB74D"
     id="stop3058-0-9" /><stop
     offset="0.4848"
     style="stop-color:#E6A844"
     id="stop3060-9-4" /><stop
     offset="1"
     style="stop-color:#C96B25"
     id="stop3062-4-8" /></linearGradient><linearGradient
   y2="87.9897"
   x2="47.9995"
   y1="8.0107002"
   x1="47.9995"
   gradientTransform="translate(1.5e-6,5e-4)"
   gradientUnits="userSpaceOnUse"
   id="linearGradient3234"
   xlink:href="#RED_x2F_ORANGE_5_2_-1-7"
   inkscape:collect="always" /><linearGradient
   y2="87.9897"
   x2="47.9995"
   y1="8.0107002"
   x1="47.9995"
   gradientTransform="translate(1.5e-6,5e-4)"
   gradientUnits="userSpaceOnUse"
   id="linearGradient3234-8"
   xlink:href="#RED_x2F_ORANGE_5_2_-1-7-2"
   inkscape:collect="always" /><linearGradient
   id="RED_x2F_ORANGE_5_2_-1-7-2"
   gradientUnits="userSpaceOnUse"
   x1="47.9995"
   y1="8.0107002"
   x2="47.9995"
   y2="87.9897"><stop
     offset="0"
     style="stop-color:#FFDB62"
     id="stop3054-7-4-4" /><stop
     offset="0.1393"
     style="stop-color:#FAD15C"
     id="stop3056-4-0-5" /><stop
     offset="0.3741"
     style="stop-color:#EDB74D"
     id="stop3058-0-9-5" /><stop
     offset="0.4848"
     style="stop-color:#E6A844"
     id="stop3060-9-4-1" /><stop
     offset="1"
     style="stop-color:#C96B25"
     id="stop3062-4-8-7" /></linearGradient><linearGradient
   y2="87.9897"
   x2="47.9995"
   y1="8.0107002"
   x1="47.9995"
   gradientTransform="translate(1.5e-6,5e-4)"
   gradientUnits="userSpaceOnUse"
   id="linearGradient3277"
   xlink:href="#RED_x2F_ORANGE_5_2_-1-7-2"
   inkscape:collect="always" /><linearGradient
   inkscape:collect="always"
   xlink:href="#linearGradient3799-7"
   id="linearGradient3803-1"
   x1="-77.5"
   y1="31.75"
   x2="-15"
   y2="31.75"
   gradientUnits="userSpaceOnUse" /><linearGradient
   id="linearGradient3799-7"><stop
     style="stop-color:#78d9e4;stop-opacity:1;"
     offset="0"
     id="stop3801-4" /></linearGradient><linearGradient
   y2="31.75"
   x2="-15"
   y1="31.75"
   x1="-77.5"
   gradientUnits="userSpaceOnUse"
   id="linearGradient3819-9"
   xlink:href="#linearGradient3799-7-4"
   inkscape:collect="always" /><linearGradient
   id="linearGradient3799-7-4"><stop
     style="stop-color:#782ee4;stop-opacity:1;"
     offset="0"
     id="stop3801-4-8" /></linearGradient><linearGradient
   y2="31.75"
   x2="-15"
   y1="31.75"
   x1="-77.5"
   gradientUnits="userSpaceOnUse"
   id="linearGradient3850-2"
   xlink:href="#linearGradient3799-7-4-4"
   inkscape:collect="always" /><linearGradient
   id="linearGradient3799-7-4-4"><stop
     style="stop-color:#782e38;stop-opacity:1;"
     offset="0"
     id="stop3801-4-8-5" /></linearGradient><linearGradient
   y2="87.9897"
   x2="47.9995"
   y1="8.0107002"
   x1="47.9995"
   gradientTransform="translate(1.5e-6,5e-4)"
   gradientUnits="userSpaceOnUse"
   id="linearGradient3277-1"
   xlink:href="#RED_x2F_ORANGE_5_2_-1-7-2-7"
   inkscape:collect="always" /><linearGradient
   id="RED_x2F_ORANGE_5_2_-1-7-2-7"
   gradientUnits="userSpaceOnUse"
   x1="47.9995"
   y1="8.0107002"
   x2="47.9995"
   y2="87.9897"><stop
     offset="0"
     style="stop-color:#FFDB62"
     id="stop3054-7-4-4-4" /><stop
     offset="0.1393"
     style="stop-color:#FAD15C"
     id="stop3056-4-0-5-0" /><stop
     offset="0.3741"
     style="stop-color:#EDB74D"
     id="stop3058-0-9-5-9" /><stop
     offset="0.4848"
     style="stop-color:#E6A844"
     id="stop3060-9-4-1-4" /><stop
     offset="1"
     style="stop-color:#C96B25"
     id="stop3062-4-8-7-8" /></linearGradient><linearGradient
   y2="87.9897"
   x2="47.9995"
   y1="8.0107002"
   x1="47.9995"
   gradientTransform="translate(1.5e-6,5e-4)"
   gradientUnits="userSpaceOnUse"
   id="linearGradient4552"
   xlink:href="#RED_x2F_ORANGE_5_2_-1-7-2-7"
   inkscape:collect="always" /><linearGradient
   y2="87.9897"
   x2="47.9995"
   y1="8.0107002"
   x1="47.9995"
   gradientTransform="translate(1.5e-6,5e-4)"
   gradientUnits="userSpaceOnUse"
   id="linearGradient4552-2"
   xlink:href="#RED_x2F_ORANGE_5_2_-1-7-2-7-4"
   inkscape:collect="always" /><linearGradient
   id="RED_x2F_ORANGE_5_2_-1-7-2-7-4"
   gradientUnits="userSpaceOnUse"
   x1="47.9995"
   y1="8.0107002"
   x2="47.9995"
   y2="87.9897"><stop
     offset="0"
     style="stop-color:#FFDB62"
     id="stop3054-7-4-4-4-5" /><stop
     offset="0.1393"
     style="stop-color:#FAD15C"
     id="stop3056-4-0-5-0-5" /><stop
     offset="0.3741"
     style="stop-color:#EDB74D"
     id="stop3058-0-9-5-9-1" /><stop
     offset="0.4848"
     style="stop-color:#E6A844"
     id="stop3060-9-4-1-4-7" /><stop
     offset="1"
     style="stop-color:#C96B25"
     id="stop3062-4-8-7-8-1" /></linearGradient>
	

		<linearGradient
   id="RED_x2F_ORANGE_5_2_-8"
   gradientUnits="userSpaceOnUse"
   x1="47.9995"
   y1="8.0107002"
   x2="47.9995"
   y2="87.9897"
   osb:paint="gradient">
			<stop
   offset="0"
   style="stop-color:#FFDB62"
   id="stop6363" />
			<stop
   offset="0.1393"
   style="stop-color:#FAD15C"
   id="stop6365" />
			<stop
   offset="0.3741"
   style="stop-color:#EDB74D"
   id="stop6367" />
			<stop
   offset="0.4848"
   style="stop-color:#E6A844"
   id="stop6369" />
			<stop
   offset="1"
   style="stop-color:#C96B25"
   id="stop6371" />
		</linearGradient>
		
		<linearGradient
   id="HIGHLIGHTS_RO5_1_"
   gradientUnits="userSpaceOnUse"
   x1="47.9995"
   y1="8.2559004"
   x2="47.9995"
   y2="87.504303">
			<stop
   offset="0"
   style="stop-color:#FFFFFF"
   id="stop6375" />
			<stop
   offset="0.0958"
   style="stop-color:#FDF8F5"
   id="stop6377" />
			<stop
   offset="0.2579"
   style="stop-color:#F6E6DB"
   id="stop6379" />
			<stop
   offset="0.4666"
   style="stop-color:#EBC9AF"
   id="stop6381" />
			<stop
   offset="0.7136"
   style="stop-color:#DCA073"
   id="stop6383" />
			<stop
   offset="0.9904"
   style="stop-color:#CA6D28"
   id="stop6385" />
			<stop
   offset="1"
   style="stop-color:#C96B25"
   id="stop6387" />
		</linearGradient>
		
	
	
<linearGradient
   inkscape:collect="always"
   xlink:href="#VIOLET_1_3_"
   id="linearGradient5108"
   gradientUnits="userSpaceOnUse"
   x1="47.9995"
   y1="9.7622004"
   x2="47.9995"
   y2="89.741203" /><linearGradient
   inkscape:collect="always"
   xlink:href="#linearGradient5113"
   id="linearGradient5117"
   x1="-54.5"
   y1="-35.875"
   x2="-19.75"
   y2="-35.875"
   gradientUnits="userSpaceOnUse"
   gradientTransform="matrix(0.14388489,0,0,0.14184397,113.31386,2.588652)" /><linearGradient
   inkscape:collect="always"
   xlink:href="#linearGradient5113-1"
   id="linearGradient5117-3"
   x1="-54.5"
   y1="-35.875"
   x2="-19.75"
   y2="-35.875"
   gradientUnits="userSpaceOnUse"
   gradientTransform="matrix(0.14388489,0,0,0.14184397,-12.158274,-16.411348)" /><linearGradient
   id="linearGradient5113-1"
   osb:paint="solid"><stop
     style="stop-color:#449311;stop-opacity:1;"
     offset="0"
     id="stop5115-9" /></linearGradient><linearGradient
   y2="-35.875"
   x2="-19.75"
   y1="-35.875"
   x1="-54.5"
   gradientTransform="matrix(0.14388489,0,0,0.14184397,113.31386,7.588652)"
   gradientUnits="userSpaceOnUse"
   id="linearGradient5133"
   xlink:href="#linearGradient5113-1"
   inkscape:collect="always" /><linearGradient
   y2="-35.875"
   x2="-19.75"
   y1="-35.875"
   x1="-54.5"
   gradientTransform="matrix(0.14388489,0,0,0.14184397,-7.158274,-16.411348)"
   gradientUnits="userSpaceOnUse"
   id="linearGradient5133-6"
   xlink:href="#linearGradient5113-1-5"
   inkscape:collect="always" /><linearGradient
   id="linearGradient5113-1-5"
   osb:paint="solid"><stop
     style="stop-color:#128406;stop-opacity:1;"
     offset="0"
     id="stop5115-9-0" /></linearGradient><linearGradient
   y2="-35.875"
   x2="-19.75"
   y1="-35.875"
   x1="-54.5"
   gradientTransform="matrix(0.14388489,0,0,0.14184397,113.31386,12.588652)"
   gradientUnits="userSpaceOnUse"
   id="linearGradient5164"
   xlink:href="#linearGradient5113-1-5"
   inkscape:collect="always" /><linearGradient
   y2="-35.875"
   x2="-19.75"
   y1="-35.875"
   x1="-54.5"
   gradientTransform="matrix(0.14388489,0,0,0.14184397,-2.158274,-16.411348)"
   gradientUnits="userSpaceOnUse"
   id="linearGradient5164-8"
   xlink:href="#linearGradient5113-1-5-6"
   inkscape:collect="always" /><linearGradient
   id="linearGradient5113-1-5-6"
   osb:paint="solid"><stop
     style="stop-color:#009351;stop-opacity:1;"
     offset="0"
     id="stop5115-9-0-0" /></linearGradient><linearGradient
   y2="-35.875"
   x2="-19.75"
   y1="-35.875"
   x1="-54.5"
   gradientTransform="matrix(0.14388489,0,0,0.14184397,113.31386,17.588652)"
   gradientUnits="userSpaceOnUse"
   id="linearGradient5195"
   xlink:href="#linearGradient5113-1-5-6"
   inkscape:collect="always" /><linearGradient
   y2="-35.875"
   x2="-19.75"
   y1="-35.875"
   x1="-54.5"
   gradientTransform="matrix(0.14388489,0,0,0.14184397,113.31386,37.588652)"
   gradientUnits="userSpaceOnUse"
   id="linearGradient5195-4"
   xlink:href="#linearGradient5113-1-5-6-8"
   inkscape:collect="always" /><linearGradient
   id="linearGradient5113-1-5-6-8"
   osb:paint="solid"><stop
     style="stop-color:#1b34b2;stop-opacity:1;"
     offset="0"
     id="stop5115-9-0-0-6" /></linearGradient><linearGradient
   y2="-35.875"
   x2="-19.75"
   y1="-35.875"
   x1="-54.5"
   gradientTransform="matrix(0.14388489,0,0,0.14184397,113.31386,32.588652)"
   gradientUnits="userSpaceOnUse"
   id="linearGradient5164-5"
   xlink:href="#linearGradient5113-1-5-0"
   inkscape:collect="always" /><linearGradient
   id="linearGradient5113-1-5-0"
   osb:paint="solid"><stop
     style="stop-color:#0066a8;stop-opacity:1;"
     offset="0"
     id="stop5115-9-0-9" /></linearGradient><linearGradient
   y2="-35.875"
   x2="-19.75"
   y1="-35.875"
   x1="-54.5"
   gradientTransform="matrix(0.14388489,0,0,0.14184397,113.31386,27.588652)"
   gradientUnits="userSpaceOnUse"
   id="linearGradient5133-0"
   xlink:href="#linearGradient5113-1-0"
   inkscape:collect="always" /><linearGradient
   id="linearGradient5113-1-0"
   osb:paint="solid"><stop
     style="stop-color:#0082b6;stop-opacity:1;"
     offset="0"
     id="stop5115-9-6" /></linearGradient><linearGradient
   inkscape:collect="always"
   xlink:href="#linearGradient5113-3"
   id="linearGradient5117-1"
   x1="-54.5"
   y1="-35.875"
   x2="-19.75"
   y2="-35.875"
   gradientUnits="userSpaceOnUse"
   gradientTransform="matrix(0.14388489,0,0,0.14184397,-12.158274,-16.411348)" /><linearGradient
   id="linearGradient5113-3"
   osb:paint="solid"><stop
     style="stop-color:#0d9758;stop-opacity:1;"
     offset="0"
     id="stop5115-8" /></linearGradient><linearGradient
   y2="-35.875"
   x2="-19.75"
   y1="-35.875"
   x1="-54.5"
   gradientTransform="matrix(0.14388489,0,0,0.14184397,113.31386,22.588652)"
   gradientUnits="userSpaceOnUse"
   id="linearGradient5238"
   xlink:href="#linearGradient5113-3"
   inkscape:collect="always" /><linearGradient
   y2="-35.875"
   x2="-19.75"
   y1="-35.875"
   x1="-54.5"
   gradientTransform="matrix(0.14388489,0,0,0.14184397,-12.158274,-11.411348)"
   gradientUnits="userSpaceOnUse"
   id="linearGradient5238-6"
   xlink:href="#linearGradient5113-3-0"
   inkscape:collect="always" /><linearGradient
   id="linearGradient5113-3-0"
   osb:paint="solid"><stop
     style="stop-color:#2c00a5;stop-opacity:1;"
     offset="0"
     id="stop5115-8-6" /></linearGradient><linearGradient
   y2="-35.875"
   x2="-19.75"
   y1="-35.875"
   x1="-54.5"
   gradientTransform="matrix(0.14388489,0,0,0.14184397,113.31386,47.588652)"
   gradientUnits="userSpaceOnUse"
   id="linearGradient5133-0-6"
   xlink:href="#linearGradient5113-1-0-1"
   inkscape:collect="always" /><linearGradient
   id="linearGradient5113-1-0-1"
   osb:paint="solid"><stop
     style="stop-color:#62226a;stop-opacity:1;"
     offset="0"
     id="stop5115-9-6-8" /></linearGradient><linearGradient
   y2="-35.875"
   x2="-19.75"
   y1="-35.875"
   x1="-54.5"
   gradientTransform="matrix(0.14388489,0,0,0.14184397,113.31386,52.588652)"
   gradientUnits="userSpaceOnUse"
   id="linearGradient5164-5-4"
   xlink:href="#linearGradient5113-1-5-0-9"
   inkscape:collect="always" /><linearGradient
   id="linearGradient5113-1-5-0-9"
   osb:paint="solid"><stop
     style="stop-color:#e50c98;stop-opacity:1;"
     offset="0"
     id="stop5115-9-0-9-6" /></linearGradient><linearGradient
   y2="-35.875"
   x2="-19.75"
   y1="-35.875"
   x1="-54.5"
   gradientTransform="matrix(0.14388489,0,0,0.14184397,113.31386,57.588652)"
   gradientUnits="userSpaceOnUse"
   id="linearGradient5195-4-3"
   xlink:href="#linearGradient5113-1-5-6-8-7"
   inkscape:collect="always" /><linearGradient
   id="linearGradient5113-1-5-6-8-7"
   osb:paint="solid"><stop
     style="stop-color:#ec297b;stop-opacity:1;"
     offset="0"
     id="stop5115-9-0-0-6-8" /></linearGradient><linearGradient
   y2="-35.875"
   x2="-19.75"
   y1="-35.875"
   x1="-54.5"
   gradientTransform="matrix(0.14388489,0,0,0.14184397,113.31386,42.588652)"
   gradientUnits="userSpaceOnUse"
   id="linearGradient5305"
   xlink:href="#linearGradient5113-3-0"
   inkscape:collect="always" /><linearGradient
   y2="-35.875"
   x2="-19.75"
   y1="-35.875"
   x1="-54.5"
   gradientTransform="matrix(0.14388489,0,0,0.14184397,113.31386,77.588652)"
   gradientUnits="userSpaceOnUse"
   id="linearGradient5195-4-3-3"
   xlink:href="#linearGradient5113-1-5-6-8-7-5"
   inkscape:collect="always" /><linearGradient
   id="linearGradient5113-1-5-6-8-7-5"
   osb:paint="solid"><stop
     style="stop-color:#ff7a0d;stop-opacity:1;"
     offset="0"
     id="stop5115-9-0-0-6-8-9" /></linearGradient><linearGradient
   y2="-35.875"
   x2="-19.75"
   y1="-35.875"
   x1="-54.5"
   gradientTransform="matrix(0.14388489,0,0,0.14184397,113.31386,72.588652)"
   gradientUnits="userSpaceOnUse"
   id="linearGradient5164-5-4-8"
   xlink:href="#linearGradient5113-1-5-0-9-4"
   inkscape:collect="always" /><linearGradient
   id="linearGradient5113-1-5-0-9-4"
   osb:paint="solid"><stop
     style="stop-color:#ff5b00;stop-opacity:1;"
     offset="0"
     id="stop5115-9-0-9-6-0" /></linearGradient><linearGradient
   y2="-35.875"
   x2="-19.75"
   y1="-35.875"
   x1="-54.5"
   gradientTransform="matrix(0.14388489,0,0,0.14184397,113.31386,67.588652)"
   gradientUnits="userSpaceOnUse"
   id="linearGradient5133-0-6-7"
   xlink:href="#linearGradient5113-1-0-1-6"
   inkscape:collect="always" /><linearGradient
   id="linearGradient5113-1-0-1-6"
   osb:paint="solid"><stop
     style="stop-color:#f74000;stop-opacity:1;"
     offset="0"
     id="stop5115-9-6-8-3" /></linearGradient><linearGradient
   y2="-35.875"
   x2="-19.75"
   y1="-35.875"
   x1="-54.5"
   gradientTransform="matrix(0.14388489,0,0,0.14184397,-12.158274,-6.411348)"
   gradientUnits="userSpaceOnUse"
   id="linearGradient5305-6"
   xlink:href="#linearGradient5113-3-0-1"
   inkscape:collect="always" /><linearGradient
   id="linearGradient5113-3-0-1"
   osb:paint="solid"><stop
     style="stop-color:#e21429;stop-opacity:1;"
     offset="0"
     id="stop5115-8-6-5" /></linearGradient><linearGradient
   y2="-35.875"
   x2="-19.75"
   y1="-35.875"
   x1="-54.5"
   gradientTransform="matrix(0.14388489,0,0,0.14184397,113.31386,62.588652)"
   gradientUnits="userSpaceOnUse"
   id="linearGradient5372"
   xlink:href="#linearGradient5113-3-0-1"
   inkscape:collect="always" /><linearGradient
   y2="-35.875"
   x2="-19.75"
   y1="-35.875"
   x1="-54.5"
   gradientTransform="matrix(0.14388489,0,0,0.14184397,113.31386,97.588652)"
   gradientUnits="userSpaceOnUse"
   id="linearGradient5195-4-3-3-7"
   xlink:href="#linearGradient5113-1-5-6-8-7-5-3"
   inkscape:collect="always" /><linearGradient
   id="linearGradient5113-1-5-6-8-7-5-3"
   osb:paint="solid"><stop
     style="stop-color:#e0e0e0;stop-opacity:1;"
     offset="0"
     id="stop5115-9-0-0-6-8-9-7" /></linearGradient><linearGradient
   y2="-35.875"
   x2="-19.75"
   y1="-35.875"
   x1="-54.5"
   gradientTransform="matrix(0.14388489,0,0,0.14184397,113.31386,92.588652)"
   gradientUnits="userSpaceOnUse"
   id="linearGradient5164-5-4-8-2"
   xlink:href="#linearGradient5113-1-5-0-9-4-6"
   inkscape:collect="always" /><linearGradient
   id="linearGradient5113-1-5-0-9-4-6"
   osb:paint="solid"><stop
     style="stop-color:#e8e8e8;stop-opacity:1;"
     offset="0"
     id="stop5115-9-0-9-6-0-0" /></linearGradient><linearGradient
   y2="-35.875"
   x2="-19.75"
   y1="-35.875"
   x1="-54.5"
   gradientTransform="matrix(0.14388489,0,0,0.14184397,113.31386,87.588652)"
   gradientUnits="userSpaceOnUse"
   id="linearGradient5133-0-6-7-1"
   xlink:href="#linearGradient5113-1-0-1-6-6"
   inkscape:collect="always" /><linearGradient
   id="linearGradient5113-1-0-1-6-6"
   osb:paint="solid"><stop
     style="stop-color:#f7d303;stop-opacity:1;"
     offset="0"
     id="stop5115-9-6-8-3-5" /></linearGradient><linearGradient
   y2="-35.875"
   x2="-19.75"
   y1="-35.875"
   x1="-54.5"
   gradientTransform="matrix(0.14388489,0,0,0.14184397,-12.158274,-1.411348)"
   gradientUnits="userSpaceOnUse"
   id="linearGradient5372-7"
   xlink:href="#linearGradient5113-3-0-1-5"
   inkscape:collect="always" /><linearGradient
   id="linearGradient5113-3-0-1-5"
   osb:paint="solid"><stop
     style="stop-color:#ffa300;stop-opacity:1;"
     offset="0"
     id="stop5115-8-6-5-4" /></linearGradient><linearGradient
   y2="-35.875"
   x2="-19.75"
   y1="-35.875"
   x1="-54.5"
   gradientTransform="matrix(0.14388489,0,0,0.14184397,113.31386,82.588652)"
   gradientUnits="userSpaceOnUse"
   id="linearGradient5439"
   xlink:href="#linearGradient5113-3-0-1-5"
   inkscape:collect="always" /><linearGradient
   y2="-35.875"
   x2="-19.75"
   y1="-35.875"
   x1="-54.5"
   gradientTransform="matrix(0.14388489,0,0,0.14184397,-12.158274,8.588652)"
   gradientUnits="userSpaceOnUse"
   id="linearGradient5164-5-4-8-2-1"
   xlink:href="#linearGradient5113-1-5-0-9-4-6-4"
   inkscape:collect="always" /><linearGradient
   id="linearGradient5113-1-5-0-9-4-6-4"
   osb:paint="solid"><stop
     style="stop-color:#d3d3d3;stop-opacity:1;"
     offset="0"
     id="stop5115-9-0-9-6-0-0-6" /></linearGradient><linearGradient
   y2="-35.875"
   x2="-19.75"
   y1="-35.875"
   x1="-54.5"
   gradientTransform="matrix(0.14388489,0,0,0.14184397,113.31386,107.58865)"
   gradientUnits="userSpaceOnUse"
   id="linearGradient5195-4-3-3-7-0"
   xlink:href="#linearGradient5113-1-5-6-8-7-5-3-7"
   inkscape:collect="always" /><linearGradient
   id="linearGradient5113-1-5-6-8-7-5-3-7"
   osb:paint="solid"><stop
     style="stop-color:#cecece;stop-opacity:1;"
     offset="0"
     id="stop5115-9-0-0-6-8-9-7-1" /></linearGradient><linearGradient
   y2="-35.875"
   x2="-19.75"
   y1="-35.875"
   x1="-54.5"
   gradientTransform="matrix(0.14388489,0,0,0.14184397,113.31386,102.58865)"
   gradientUnits="userSpaceOnUse"
   id="linearGradient5498"
   xlink:href="#linearGradient5113-1-5-0-9-4-6-4"
   inkscape:collect="always" /><linearGradient
   id="SVGID_1_"
   gradientUnits="userSpaceOnUse"
   x1="48.452099"
   y1="39.117199"
   x2="48.452099"
   y2="70.455498"
   osb:paint="gradient"><stop
     offset="0.3232"
     style="stop-color:#FAFCEF"
     id="stop4392-1" /><stop
     offset="1"
     style="stop-color:#D0CBC5"
     id="stop4394-7" /></linearGradient><linearGradient
   gradientTransform="translate(68.546831,-90.188689)"
   y2="70.455498"
   x2="48.452099"
   y1="39.117199"
   x1="48.452099"
   gradientUnits="userSpaceOnUse"
   id="linearGradient4418"
   xlink:href="#SVGID_1_"
   inkscape:collect="always" /><linearGradient
   id="HIGHLIGHT_RIM_1_"
   gradientUnits="userSpaceOnUse"
   x1="47.9995"
   y1="0"
   x2="47.9995"
   y2="144.6673"><stop
     offset="0"
     style="stop-color:#FFFFFF"
     id="stop4495" /><stop
     offset="1"
     style="stop-color:#000000"
     id="stop4497" /></linearGradient><linearGradient
   y2="144.6673"
   x2="47.9995"
   y1="0"
   x1="47.9995"
   gradientUnits="userSpaceOnUse"
   id="linearGradient4559"><stop
     id="stop4561"
     style="stop-color:#FFFFFF"
     offset="0" /><stop
     id="stop4563"
     style="stop-color:#000000"
     offset="1" /></linearGradient><linearGradient
   inkscape:collect="always"
   xlink:href="#HIGHLIGHT_RIM_1_"
   id="linearGradient3263"
   gradientUnits="userSpaceOnUse"
   x1="47.9995"
   y1="0"
   x2="47.9995"
   y2="144.6673" /></defs><sodipodi:namedview
   pagecolor="#ffffff"
   bordercolor="#666666"
   borderopacity="1"
   objecttolerance="1"
   gridtolerance="1"
   guidetolerance="1"
   inkscape:pageopacity="0"
   inkscape:pageshadow="2"
   inkscape:window-width="1280"
   inkscape:window-height="738"
   id="namedview3065"
   showgrid="false"
   inkscape:zoom="2.8284271"
   inkscape:cx="54.275297"
   inkscape:cy="51.817976"
   inkscape:window-x="-8"
   inkscape:window-y="-8"
   inkscape:window-maximized="1"
   inkscape:current-layer="layer2"
   showguides="true"
   inkscape:guide-bbox="true"><inkscape:grid
     type="xygrid"
     id="grid3071"
     empspacing="5"
     visible="true"
     enabled="true"
     snapvisiblegridlinesonly="true" /><sodipodi:guide
     orientation="0,1"
     position="49.320698,75"
     id="guide3020" /><sodipodi:guide
     orientation="0,1"
     position="75,21"
     id="guide3022" /><sodipodi:guide
     orientation="1,0"
     position="20.96875,75"
     id="guide3024" /><sodipodi:guide
     orientation="1,0"
     position="74.992187,21"
     id="guide3026" /></sodipodi:namedview>
<linearGradient
   id="RED_x2F_ORANGE_5_2_"
   gradientUnits="userSpaceOnUse"
   x1="47.9995"
   y1="8.0107002"
   x2="47.9995"
   y2="87.9897">
	<stop
   offset="0"
   style="stop-color:#FFDB62"
   id="stop3054" />
	<stop
   offset="0.1393"
   style="stop-color:#FAD15C"
   id="stop3056" />
	<stop
   offset="0.3741"
   style="stop-color:#EDB74D"
   id="stop3058" />
	<stop
   offset="0.4848"
   style="stop-color:#E6A844"
   id="stop3060" />
	<stop
   offset="1"
   style="stop-color:#C96B25"
   id="stop3062" />
</linearGradient>

<g
   inkscape:groupmode="layer"
   id="layer5"
   inkscape:label="DO NOT EDIT -  Bounding Box"
   style="display:inline"
   sodipodi:insensitive="true"><rect
     style="fill:#000000;fill-opacity:0;stroke:none;display:inline"
     id="rect3119"
     width="96"
     height="96"
     x="0"
     y="0" /></g><g
   inkscape:groupmode="layer"
   id="layer4"
   inkscape:label="DO NOT EDIT -  Shadow"
   style="display:inline"
   sodipodi:insensitive="true"><path
     style="opacity:0.4"
     inkscape:connector-curvature="0"
     id="SHADOW"
     d="m 88.023,49 c 0,29.633 -10.364,40 -40,40 -29.635,0 -40,-10.367 -40,-40 0,-29.634 10.366,-40 40,-40 29.636,0 40,10.365 40,40 z" /></g><g
   inkscape:groupmode="layer"
   id="layer7"
   inkscape:label="PLACE YOUR BACKGROUND HERE"
   style="display:inline"><path
     style="fill:#ff6600;fill-opacity:1"
     d="M 48 7.96875 C 18.365 7.96875 8 18.33475 8 47.96875 C 8 77.60175 18.365 87.96875 48 87.96875 C 77.637 87.96875 88 77.60075 88 47.96875 C 88 18.33375 77.637 7.96875 48 7.96875 z "
     id="rect4385" /></g><g
   inkscape:groupmode="layer"
   id="layer2"
   inkscape:label="PLACE YOUR GRAPHIC HERE"
   style="display:inline"><g
     id="Icons with numbers"
     style="fill:none;stroke:none"
     transform="matrix(4.6392667,0,0,4.0593592,10.041807,15.525126)"><g
       transform="translate(-480,-96)"
       id="Group"
       style="fill:#000000"><path
         id="Genius2"
         d="m 488,112 c -1.5,0 -3,-3.5 -3,-8 0,-4.5 1.5,-8 3,-8 1.5,0 3,3.5 3,8 0,4.5 -1.5,8 -3,8 z m 0,-1 c 1,0 2,-3 2,-7 0,-4 -1,-7 -2,-7 -1,0 -2,3 -2,7 0,4 1,7 2,7 z m 0,0"
         inkscape:connector-curvature="0" /><path
         id="path4342"
         d="m 481.37266,108.33955 c -0.86118,-1.2261 1.25671,-4.3819 5.08693,-6.86294 3.83022,-2.481041 7.67045,-3.184642 8.53163,-1.958543 0.86117,1.226103 -1.25672,4.381893 -5.08694,6.862943 -3.83022,2.48104 -7.67045,3.18464 -8.53162,1.95854 z m 0.85116,-0.55134 c 0.57411,0.8174 3.7017,-0.0192 7.10635,-2.2246 3.40463,-2.20537 5.384,-4.6768 4.80989,-5.4942 -0.57412,-0.8174 -3.70171,0.0192 -7.10635,2.2246 -3.40464,2.20537 -5.38401,4.6768 -4.80989,5.4942 z m 0,0"
         inkscape:connector-curvature="0" /><path
         id="path4344"
         d="m 494.99122,108.33955 c -0.86118,1.2261 -4.70141,0.5225 -8.53163,-1.95854 -3.83022,-2.48105 -5.94811,-5.63684 -5.08693,-6.862943 0.86117,-1.226099 4.7014,-0.522498 8.53162,1.958543 3.83022,2.48104 5.94811,5.63684 5.08694,6.86294 z m -0.85116,-0.55134 c 0.57411,-0.8174 -1.40526,-3.28883 -4.80989,-5.4942 -3.40465,-2.20537 -6.53224,-3.042 -7.10635,-2.2246 -0.57412,0.8174 1.40525,3.28883 4.80989,5.4942 3.40464,2.20537 6.53223,3.042 7.10635,2.2246 z m 0,0"
         inkscape:connector-curvature="0" /></g></g></g><g
   inkscape:groupmode="layer"
   id="layer3"
   inkscape:label="DO NOT EDIT - Surround Gradients"
   style="display:inline"
   sodipodi:insensitive="true"><path
     d="m 48,7.979 c -29.635,0 -40,10.365 -40,40 0,29.633 10.365,40 40,40 29.637,0 40,-10.367 40,-40 0,-29.635 -10.363,-40 -40,-40 z m 0,79.023 C 18.841,87.002 9,77.154 9,47.978 9,18.803 18.841,8.956 48,8.956 c 29.158,0 39,9.847 39,39.022 0,29.176 -9.842,39.024 -39,39.024 z"
     id="HIGHLIGHT_RIM"
     inkscape:connector-curvature="0"
     style="fill:url(#linearGradient3263);fill-opacity:0.25" /><path
     style="fill:#ffffff;fill-opacity:0.05;display:none"
     inkscape:connector-curvature="0"
     id="SQUIRCLE"
     display="none"
     d="m 48,87.979 c -29.635,0 -40,-10.367 -40,-40 0,-29.634 10.365,-40 40,-40 29.637,0 40,10.365 40,40 0,29.632 -10.363,40 -40,40 z" /><path
     style="opacity:0.02000002"
     inkscape:connector-curvature="0"
     d="M 9.478,64.25 C 13.244,81.519 24.624,87.979 48,87.979 c 23.378,0 34.756,-6.46 38.522,-23.729 H 9.478 z"
     id="path4502" /><path
     style="opacity:0.02000002"
     inkscape:connector-curvature="0"
     d="M 10.242,67.25 C 14.659,82.271 26.031,87.979 48,87.979 c 21.971,0 33.342,-5.708 37.758,-20.729 H 10.242 z"
     id="path4504" /><path
     style="opacity:0.02000002"
     inkscape:connector-curvature="0"
     d="M 11.258,70.25 C 16.284,83.041 27.555,87.979 48,87.979 c 20.446,0 31.717,-4.938 36.742,-17.729 H 11.258 z"
     id="path4506" /><path
     style="opacity:0.02000002"
     inkscape:connector-curvature="0"
     d="M 12.636,73.25 C 18.211,83.815 29.241,87.979 48,87.979 c 18.76,0 29.79,-4.163 35.365,-14.729 H 12.636 z"
     id="path4508" /><path
     style="opacity:0.02000002"
     inkscape:connector-curvature="0"
     d="M 13.797,75.25 C 19.685,84.348 30.47,87.979 48,87.979 c 17.531,0 28.316,-3.631 34.203,-12.729 H 13.797 z"
     id="path4510" /><path
     style="opacity:0.02000002"
     inkscape:connector-curvature="0"
     d="m 15.255,77.25 c 6.141,7.628 16.566,10.729 32.745,10.729 16.18,0 26.604,-3.101 32.745,-10.729 h -65.49 z"
     id="path4512" /><path
     style="fill-opacity:0.02000002"
     inkscape:connector-curvature="0"
     d="m 17.059,79.25 c 6.305,6.177 16.254,8.729 30.941,8.729 14.688,0 24.638,-2.552 30.942,-8.729 H 17.059 z"
     id="path4514" /><path
     style="opacity:0.01000001;fill:#ffffff"
     inkscape:connector-curvature="0"
     d="m 48,8.979 c -29.635,0 -40,10.365 -40,40 0,2.888 0.102,5.588 0.307,8.119 l 0.219,0.02 h 78.958 l 0.21,-0.019 c 0.205,-2.531 0.307,-5.23 0.307,-8.12 C 88,19.344 77.637,8.979 48,8.979 z"
     id="path4517" /><path
     style="opacity:0.01000001;fill:#ffffff"
     inkscape:connector-curvature="0"
     d="m 48,7.979 c -29.635,0 -40,10.365 -40,40 0,1.051 0.017,2.073 0.043,3.077 l 0.701,0.062 H 87.26 l 0.697,-0.063 C 87.983,50.051 88,49.029 88,47.978 88,18.344 77.637,7.979 48,7.979 z"
     id="path4519" /><path
     style="opacity:0.01000001;fill:#ffffff"
     inkscape:connector-curvature="0"
     d="m 8.965,46.116 h 78.072 l 0.941,-0.084 C 87.521,17.897 76.975,7.979 48,7.979 19.027,7.979 8.479,17.898 8.022,46.033 l 0.943,0.083 z"
     id="path4521" /><path
     style="opacity:0.01000001;fill:#ffffff"
     inkscape:connector-curvature="0"
     d="M 9.186,41.116 H 86.814 L 87.775,41.03 C 86.147,16.713 75.187,7.979 48,7.979 20.815,7.979 9.853,16.714 8.225,41.032 l 0.961,0.084 z"
     id="path4523" /><path
     style="opacity:0.01000001;fill:#ffffff"
     inkscape:connector-curvature="0"
     d="m 9.186,37.116 h 77.628 c 0.201,0 0.397,-0.036 0.594,-0.066 C 84.854,15.753 73.648,7.979 48,7.979 c -25.646,0 -36.854,7.774 -39.408,29.072 0.197,0.029 0.392,0.065 0.594,0.065 z"
     id="path4525" /><path
     style="opacity:0.01000001;fill:#ffffff"
     inkscape:connector-curvature="0"
     d="m 48,7.979 c -24.004,0 -35.363,6.805 -38.814,25.138 H 86.814 C 83.363,14.783 72.006,7.979 48,7.979 z"
     id="path4527" /><path
     style="opacity:0.01000001;fill:#ffffff"
     inkscape:connector-curvature="0"
     d="m 84.074,29.67 1.6,-0.376 c 0.083,-0.02 0.158,-0.058 0.239,-0.084 C 81.605,13.805 70.22,7.979 48,7.979 c -22.218,0 -33.604,5.827 -37.913,21.231 0.081,0.026 0.156,0.064 0.239,0.084 l 1.599,0.376 c 0.226,0.053 0.456,0.08 0.688,0.08 h 70.773 c 0.232,0 0.463,-0.027 0.688,-0.08 z"
     id="path4529" /><path
     style="opacity:0.01000001;fill:#ffffff"
     inkscape:connector-curvature="0"
     d="m 12.613,26.75 h 70.773 l 1.6,-0.376 C 80.091,13.093 68.794,7.979 48,7.979 c -20.792,0 -32.09,5.115 -36.986,18.395 l 1.599,0.376 z"
     id="path4531" /><path
     style="opacity:0.01000001;fill:#ffffff"
     inkscape:connector-curvature="0"
     d="m 12.613,24.75 h 70.773 c 0.305,0 0.595,-0.081 0.86,-0.208 C 78.999,12.621 67.81,7.979 48,7.979 c -19.808,0 -30.998,4.643 -36.247,16.563 0.266,0.127 0.556,0.208 0.86,0.208 z"
     id="path4533" /><path
     style="opacity:0.01000001;fill:#ffffff"
     inkscape:connector-curvature="0"
     d="M 83.387,22.75 C 77.82,12.153 66.786,7.979 48,7.979 29.215,7.979 18.181,12.153 12.613,22.75 h 70.774 z"
     id="path4535" /></g></svg>